<!DOCTYPE svg PUBLIC "-//W3C//DTD SVG 20010904//EN" "http://www.w3.org/TR/2001/REC-SVG-20010904/DTD/svg10.dtd">
<svg version="1.0" xmlns="http://www.w3.org/2000/svg" width="337px" height="381px" viewBox="0 0 3370 3810" preserveAspectRatio="xMidYMid meet">
<g id="layer1" fill="#000000" stroke="none">
 <path d="M1200 3715 c-252 -25 -354 -58 -394 -128 -36 -63 -40 -96 -17 -149 22 -53 50 -81 105 -110 l40 -20 -27 -15 c-33 -17 -34 -36 -3 -87 18 -29 22 -45 16 -65 -4 -15 -13 -74 -20 -132 -13 -111 -6 -196 27 -332 l16 -68 -32 -78 c-28 -69 -32 -89 -32 -167 1 -107 14 -186 34 -198 12 -7 -5 -21 -72 -61 -156 -92 -345 -232 -434 -320 -104 -104 -168 -232 -193 -387 -29 -183 0 -280 89 -295 36 -5 37 -5 37 26 0 17 -14 72 -31 123 -41 125 -39 202 11 303 24 47 36 63 38 50 7 -46 34 -101 59 -120 30 -21 136 -34 147 -17 14 24 -6 42 -48 42 -45 1 -62 11 -89 52 -22 36 -22 65 3 106 26 43 76 72 123 72 40 0 97 -24 110 -46 9 -15 57 -19 57 -6 0 23 -91 75 -150 86 -19 3 -51 2 -69 -4 -19 -5 -36 -8 -38 -6 -12 11 397 295 491 341 94 46 206 68 325 63 l106 -4 135 -65 c141 -69 289 -173 349 -246 46 -55 79 -130 91 -209 11 -65 6 -144 -9 -144 -3 0 -38 23 -76 51 -61 44 -70 48 -76 32 -13 -32 -10 -40 20 -53 45 -18 63 -44 63 -89 -1 -48 -18 -77 -54 -92 -33 -13 -80 2 -102 33 -10 14 -20 17 -40 12 -35 -8 -33 -27 6 -63 52 -48 157 -59 203 -21 13 11 15 7 15 -20 0 -65 -43 -216 -83 -295 -23 -44 -70 -113 -105 -153 -60 -69 -69 -92 -35 -92 20 0 118 102 158 165 79 125 118 268 114 412 -2 55 2 77 14 91 30 33 60 115 61 168 1 128 -170 363 -363 497 -48 33 -171 95 -211 107 -23 7 -22 8 25 30 194 87 196 89 193 118 -3 27 -4 27 -68 24 -78 -4 -281 -41 -295 -54 -6 -6 20 -9 72 -6 79 3 83 2 77 -17 -18 -59 -15 -58 -210 -57 -98 1 -205 -2 -236 -6 l-57 -9 -17 74 c-9 41 -14 77 -10 80 3 3 25 -12 50 -35 24 -22 62 -50 83 -61 l40 -20 54 25 c118 55 321 108 465 120 l71 7 -38 89 c-22 49 -39 91 -39 94 0 10 83 3 114 -10 19 -8 74 -48 122 -90 98 -85 146 -102 203 -73 42 21 50 2 9 -23 -61 -39 -100 -25 -228 76 -179 143 -190 143 -133 4 l38 -94 110 -23 c61 -12 158 -30 217 -40 93 -15 108 -20 117 -41 12 -24 65 -52 102 -52 12 0 38 10 59 21 l38 22 67 -37 c36 -20 69 -36 73 -36 8 0 -177 110 -187 110 -3 0 -15 8 -26 16 -20 16 -20 16 1 10 29 -9 52 18 33 40 -36 43 -117 59 -126 24 -4 -16 -9 -18 -24 -9 -27 14 -25 43 2 36 43 -11 66 21 37 52 -7 7 8 3 34 -10 40 -20 308 -268 308 -284 0 -3 -9 -1 -20 5 -11 6 -20 8 -20 6 0 -11 76 -43 90 -38 8 2 29 17 45 33 l31 29 69 -77 c103 -114 167 -184 194 -212 96 -100 251 -295 251 -316 0 -25 42 -65 69 -65 28 1 63 35 59 58 -1 12 -120 142 -263 289 -365 375 -358 368 -346 391 5 10 11 37 12 60 3 40 0 45 -102 149 -159 164 -161 165 -244 208 -43 22 -97 59 -121 82 -57 56 -107 80 -175 85 -46 4 -77 17 -173 72 -65 36 -121 66 -125 66 -16 0 -51 -48 -92 -124 -39 -72 -41 -79 -24 -88 14 -8 15 -12 4 -19 -8 -5 -26 -9 -41 -9 l-27 0 15 43 c27 75 46 200 46 302 l1 100 41 20 c33 16 42 26 46 53 6 40 54 72 109 72 133 0 241 153 186 261 -43 82 -173 109 -327 66 l-87 -24 -48 28 c-68 40 -221 53 -413 34z m309 -66 c82 -10 91 -17 116 -91 43 -125 -73 -214 -200 -154 -42 19 -56 33 -85 85 -19 34 -41 69 -48 76 -41 45 -204 45 -290 1 -30 -15 -52 -29 -49 -32 2 -3 44 1 94 7 102 14 162 5 178 -27 17 -33 59 -88 85 -111 21 -19 22 -22 7 -23 -9 0 -37 18 -61 40 -24 22 -48 40 -55 40 -14 0 -14 -35 -1 -60 9 -17 6 -21 -17 -27 -44 -12 -160 -8 -177 6 -9 8 -16 26 -16 42 0 60 88 77 115 22 8 -16 15 -19 28 -12 23 13 22 22 -9 58 -22 27 -32 31 -75 31 -61 0 -111 -38 -113 -87 -1 -29 -2 -30 -29 -21 -47 17 -73 99 -47 149 22 40 179 86 336 98 112 9 185 7 313 -10z m403 -9 c83 -24 124 -89 94 -152 -26 -54 -121 -91 -263 -104 l-76 -7 9 34 c5 19 8 71 8 116 l-1 83 51 19 c57 22 122 26 178 11z m-480 -358 c8 -6 52 -20 99 -30 l84 -19 -178 -7 c-98 -4 -180 -6 -183 -3 -2 2 31 27 73 55 68 45 79 49 84 34 4 -10 13 -23 21 -30z m176 -218 l3 -41 -77 -6 c-42 -4 -117 -7 -165 -7 -49 0 -157 -7 -239 -16 -83 -8 -154 -14 -158 -12 -5 2 -4 21 0 44 l8 40 238 13 c130 8 257 17 282 21 25 4 59 7 75 6 28 -1 30 -4 33 -42z m5 -115 c3 -11 3 -36 0 -55 -5 -32 -8 -34 -37 -30 -97 15 -140 15 -326 -4 -113 -12 -223 -22 -245 -23 l-40 -2 0 45 0 45 195 6 c175 5 408 25 419 35 11 11 29 2 34 -17z m284 -56 l72 -37 -42 -24 c-23 -14 -54 -36 -69 -50 l-27 -25 -48 28 c-26 15 -50 29 -52 31 -5 4 50 97 63 106 18 12 28 10 103 -29z m253 -83 c41 0 53 -5 94 -41 l46 -41 0 -70 c0 -38 -5 -78 -10 -89 -15 -26 -56 -24 -122 6 -59 28 -113 32 -142 10 -18 -14 -18 -16 5 -63 19 -39 22 -51 12 -61 -16 -15 -36 -14 -70 4 -15 8 -45 22 -66 31 -21 9 -43 27 -50 40 -7 13 -37 40 -67 59 -50 33 -61 36 -119 34 l-65 -2 -11 39 -11 39 78 16 c52 11 99 14 140 9 51 -5 71 -2 103 13 22 11 42 23 45 26 23 30 87 51 134 45 16 -2 50 -4 76 -4z m-659 -156 c92 -207 90 -190 27 -203 -107 -22 -92 -35 -165 147 -35 90 -62 166 -59 169 9 10 110 43 120 39 6 -1 40 -70 77 -152z m67 147 c16 -10 12 -53 -4 -58 -16 -5 -44 25 -44 48 0 20 24 25 48 10z m-432 -34 c-16 -12 -52 -39 -80 -60 l-51 -38 -3 47 c-2 25 -1 48 1 51 4 4 112 20 147 21 9 1 3 -9 -14 -21z m172 -245 l50 -110 -37 -7 c-20 -3 -43 -8 -52 -11 -14 -4 -50 61 -147 267 -1 3 19 15 45 27 l47 20 22 -38 c12 -21 44 -87 72 -148z m1073 149 l23 -19 -24 -46 c-13 -26 -28 -50 -33 -53 -5 -3 -4 5 3 17 12 22 10 69 -5 103 -10 23 7 22 36 -2z m-1262 -186 l72 -119 -46 -23 c-44 -23 -46 -23 -69 -6 -13 10 -36 36 -52 58 -25 35 -29 49 -29 108 0 61 3 70 25 87 14 10 25 18 26 17 1 -1 34 -56 73 -122z m1088 9 c-2 -2 -18 2 -35 8 -43 17 -62 0 -42 -37 16 -29 10 -39 -18 -31 -12 4 -22 19 -26 40 -4 18 -17 43 -31 56 -19 17 -22 27 -14 36 9 11 27 5 91 -27 43 -23 78 -43 75 -45z m406 -34 c88 -92 91 -98 81 -137 -9 -35 -25 -28 -74 32 -43 52 -80 71 -80 42 0 -8 10 -25 21 -38 81 -92 91 -107 79 -128 -6 -12 -14 -21 -18 -21 -8 0 -168 162 -191 192 -10 14 -8 24 10 60 34 68 50 88 68 88 9 0 55 -41 104 -90z m-285 55 c-9 -20 -14 -23 -31 -13 -20 10 -19 11 9 23 16 8 30 14 31 14 2 1 -2 -10 -9 -24z m-138 -54 c0 -26 -41 -101 -55 -101 -9 0 -15 3 -13 8 2 4 11 28 22 55 10 26 25 47 32 47 8 0 14 -4 14 -9z m101 -115 c-12 -12 -21 -27 -21 -33 0 -6 -7 -17 -17 -24 -9 -8 -14 -9 -11 -4 2 6 13 29 22 52 13 28 23 40 33 36 11 -5 10 -10 -6 -27z"/>
 <path d="M1870 3607 c0 -43 27 -67 75 -67 43 0 44 1 34 23 -12 26 -68 67 -92 67 -11 0 -17 -8 -17 -23z"/>
 <path d="M1080 1941 c0 -6 8 -19 19 -30 14 -14 16 -23 8 -36 -15 -28 -2 -102 28 -144 27 -40 101 -81 147 -81 74 0 149 47 177 111 l16 37 105 -27 c157 -41 170 -43 170 -26 0 19 -21 29 -115 54 -44 11 -129 34 -190 51 -60 16 -160 44 -222 60 -61 17 -119 33 -127 36 -9 3 -16 1 -16 -5z"/>
 <path d="M1522 1326 c-75 -81 -95 -159 -50 -190 40 -28 62 -21 77 27 14 41 28 207 19 207 -3 0 -24 -20 -46 -44z"/>
 <path d="M1759 1213 c-75 -79 -87 -122 -46 -161 31 -30 61 -28 76 4 16 37 36 157 28 177 -9 25 -19 21 -58 -20z"/>
 <path d="M4 1045 c3 -84 10 -116 41 -204 44 -127 78 -197 114 -234 31 -34 72 -57 100 -57 13 0 34 -20 60 -57 76 -109 95 -123 165 -123 36 0 52 6 80 30 59 52 166 289 166 366 l0 28 -30 -34 c-17 -19 -46 -64 -66 -100 -61 -109 -77 -130 -123 -160 -52 -35 -78 -37 -131 -10 -66 34 -62 50 30 137 45 42 94 95 110 118 26 38 190 357 190 370 0 20 -144 -146 -170 -195 -46 -87 -173 -210 -233 -224 -102 -24 -229 158 -301 429 -3 11 -4 -25 -2 -80z"/>
 <path d="M1250 955 l-54 -55 41 0 c24 0 46 6 53 15 18 22 28 19 78 -22 49 -40 155 -83 205 -83 38 0 72 21 80 50 5 19 1 20 -63 20 -86 0 -104 7 -198 75 -41 30 -77 55 -81 55 -4 0 -31 -25 -61 -55z"/>
 <path d="M1027 762 c-26 -133 -30 -218 -18 -317 12 -103 28 -131 88 -160 37 -18 41 -24 47 -66 9 -64 43 -112 88 -123 31 -8 46 -4 112 27 94 45 147 81 258 174 78 67 110 103 90 103 -4 0 -50 -25 -102 -55 -235 -135 -342 -164 -385 -102 -23 33 -19 42 38 68 121 55 260 161 352 267 l19 23 -27 -10 c-49 -19 -109 -52 -171 -95 -65 -46 -173 -100 -219 -110 -27 -6 -28 -5 -23 21 11 61 15 160 8 193 l-8 35 -13 -35 c-7 -19 -15 -74 -18 -122 -3 -49 -9 -88 -13 -88 -15 0 -59 67 -69 106 -5 21 -10 108 -9 192 0 84 -2 155 -4 157 -3 3 -12 -34 -21 -83z"/>
 </g>
</svg>